# Blender 3.5.1
# www.blender.org
mtllib untitled.mtl
o 평면
v -300.000000 0.000008 100.000000
v -100.000000 0.000008 100.000000
v -300.000000 -0.000008 -100.000000
v -100.000000 -0.000008 -100.000000
vn -0.0000 1.0000 -0.0000
vt 0.000000 0.000000
vt 1.000000 0.000000
vt 0.000000 1.000000
vt 1.000000 1.000000
s 0
usemtl 매테리얼
f 2/2/1 3/3/1 1/1/1
f 2/2/1 4/4/1 3/3/1
o 평면.001
v 100.000000 0.000008 100.000000
v 300.000000 0.000008 100.000000
v 100.000000 -0.000008 -100.000000
v 300.000000 -0.000008 -100.000000
vn -0.0000 1.0000 -0.0000
vt 0.000000 0.000000
vt 1.000000 0.000000
vt 0.000000 1.000000
vt 1.000000 1.000000
s 0
usemtl 매테리얼.001
f 6/6/2 7/7/2 5/5/2
f 6/6/2 8/8/2 7/7/2
o 평면.002
v -100.000000 0.000008 100.000000
v 100.000000 0.000008 100.000000
v -100.000000 -0.000008 -100.000000
v 100.000000 -0.000008 -100.000000
vn -0.0000 1.0000 -0.0000
vt 0.000000 0.000000
vt 1.000000 0.000000
vt 0.000000 1.000000
vt 1.000000 1.000000
s 0
usemtl 매테리얼.002
f 10/10/3 11/11/3 9/9/3
f 10/10/3 12/12/3 11/11/3
o 평면.003
v 100.000000 0.000008 -100.000000
v 300.000000 0.000008 -100.000000
v 100.000000 -0.000008 -300.000000
v 300.000000 -0.000008 -300.000000
vn -0.0000 1.0000 -0.0000
vt 0.000000 0.000000
vt 1.000000 0.000000
vt 0.000000 1.000000
vt 1.000000 1.000000
s 0
usemtl 매테리얼.003
f 14/14/4 15/15/4 13/13/4
f 14/14/4 16/16/4 15/15/4
o 평면.004
v -100.000000 0.000008 -100.000000
v 100.000000 0.000008 -100.000000
v -100.000000 -0.000008 -300.000000
v 100.000000 -0.000008 -300.000000
vn -0.0000 1.0000 -0.0000
vt 0.000000 0.000000
vt 1.000000 0.000000
vt 0.000000 1.000000
vt 1.000000 1.000000
s 0
usemtl 매테리얼.004
f 18/18/5 19/19/5 17/17/5
f 18/18/5 20/20/5 19/19/5
o 평면.005
v -300.000000 0.000008 -100.000000
v -100.000000 0.000008 -100.000000
v -300.000000 -0.000008 -300.000000
v -100.000000 -0.000008 -300.000000
vn -0.0000 1.0000 -0.0000
vt 0.000000 0.000000
vt 1.000000 0.000000
vt 0.000000 1.000000
vt 1.000000 1.000000
s 0
usemtl 매테리얼.005
f 22/22/6 23/23/6 21/21/6
f 22/22/6 24/24/6 23/23/6
o 평면.006
v 100.000000 0.000008 300.000000
v 300.000000 0.000008 300.000000
v 100.000000 -0.000008 100.000000
v 300.000000 -0.000008 100.000000
vn -0.0000 1.0000 -0.0000
vt 0.000000 0.000000
vt 1.000000 0.000000
vt 0.000000 1.000000
vt 1.000000 1.000000
s 0
usemtl 매테리얼.006
f 26/26/7 27/27/7 25/25/7
f 26/26/7 28/28/7 27/27/7
o 평면.007
v -300.000000 0.000008 300.000000
v -100.000000 0.000008 300.000000
v -300.000000 -0.000008 100.000000
v -100.000000 -0.000008 100.000000
vn -0.0000 1.0000 -0.0000
vt 0.000000 0.000000
vt 1.000000 0.000000
vt 0.000000 1.000000
vt 1.000000 1.000000
s 0
usemtl 매테리얼.007
f 30/30/8 31/31/8 29/29/8
f 30/30/8 32/32/8 31/31/8
o 평면.008
v -100.000000 0.000008 300.000000
v 100.000000 0.000008 300.000000
v -100.000000 -0.000008 100.000000
v 100.000000 -0.000008 100.000000
vn -0.0000 1.0000 -0.0000
vt 0.000000 0.000000
vt 1.000000 0.000000
vt 0.000000 1.000000
vt 1.000000 1.000000
s 0
usemtl 매테리얼.008
f 34/34/9 35/35/9 33/33/9
f 34/34/9 36/36/9 35/35/9
